<svg width="482" height="90" viewBox="0 0 482 90" fill="none" xmlns="http://www.w3.org/2000/svg">
<path d="M453.392 84.9617C448.057 84.9617 443.393 83.7997 439.4 81.4758C435.441 79.1187 432.354 75.8487 430.139 71.6656C427.925 67.4494 426.818 62.536 426.818 56.9255C426.818 51.0493 427.908 45.97 430.089 41.6873C432.27 37.3715 435.307 34.0517 439.199 31.7278C443.125 29.3707 447.722 28.1921 452.989 28.1921C458.459 28.1921 463.106 29.4371 466.931 31.927C470.79 34.4168 473.675 37.9691 475.588 42.5837C477.534 47.1983 478.373 52.6927 478.104 59.0668H469.045V55.8797C468.944 49.2732 467.585 44.3432 464.968 41.0898C462.351 37.8031 458.459 36.1598 453.291 36.1598C447.755 36.1598 443.544 37.9193 440.658 41.4383C437.773 44.9574 436.33 50.0036 436.33 56.5769C436.33 62.9178 437.773 67.8312 440.658 71.3171C443.544 74.8029 447.654 76.5458 452.989 76.5458C456.58 76.5458 459.7 75.7325 462.351 74.1057C465.002 72.479 467.082 70.1385 468.592 67.0842L477.198 70.0223C475.084 74.7697 471.897 78.4548 467.636 81.0774C463.408 83.6669 458.66 84.9617 453.392 84.9617ZM433.31 59.0668V51.9457H473.474V59.0668H433.31Z" fill="#9E9E9E"/>
<path d="M399.309 83.4678V29.6861H407.311V42.6833L406.003 40.9902C406.64 39.3303 407.462 37.8031 408.469 36.4088C409.509 35.0144 410.667 33.8691 411.942 32.9727C413.351 31.844 414.945 30.9808 416.723 30.3832C418.502 29.7857 420.313 29.4371 422.159 29.3375C424.004 29.2047 425.732 29.3209 427.343 29.6861V38.0023C425.464 37.5043 423.4 37.3715 421.152 37.6039C418.904 37.8363 416.824 38.6497 414.911 40.044C413.167 41.2724 411.808 42.7663 410.835 44.5258C409.895 46.2854 409.241 48.1943 408.872 50.2526C408.503 52.2777 408.318 54.3526 408.318 56.4773V83.4678H399.309Z" fill="#9E9E9E"/>
<path d="M364.178 84.9617C360.118 84.9617 356.713 84.2313 353.961 82.7706C351.243 81.2766 349.18 79.3179 347.771 76.8944C346.395 74.4709 345.707 71.815 345.707 68.9268C345.707 66.1049 346.244 63.6648 347.318 61.6065C348.425 59.515 349.968 57.7886 351.948 56.4275C353.928 55.0332 356.293 53.9376 359.045 53.1408C361.628 52.4437 364.514 51.8461 367.701 51.3481C370.923 50.8169 374.177 50.3356 377.465 49.904C380.754 49.4724 383.824 49.0574 386.676 48.659L383.455 50.5016C383.556 45.721 382.582 42.1853 380.536 39.8946C378.522 37.6039 375.033 36.4586 370.067 36.4586C366.779 36.4586 363.893 37.2055 361.41 38.6995C358.961 40.1602 357.233 42.5505 356.226 45.8704L347.72 43.3307C349.029 38.6165 351.562 34.9148 355.32 32.2257C359.078 29.5367 364.027 28.1921 370.168 28.1921C375.1 28.1921 379.328 29.0719 382.851 30.8314C386.408 32.5577 388.958 35.1804 390.501 38.6995C391.273 40.3594 391.759 42.1687 391.961 44.1274C392.162 46.0529 392.263 48.0781 392.263 50.2028V83.4677H384.31V70.5701L386.173 71.7652C384.126 76.1143 381.257 79.4009 377.566 81.6252C373.909 83.8495 369.446 84.9617 364.178 84.9617ZM365.537 77.5418C368.758 77.5418 371.543 76.9774 373.892 75.8487C376.274 74.6867 378.187 73.1762 379.63 71.3171C381.073 69.4247 382.012 67.3664 382.448 65.1421C382.952 63.4822 383.22 61.6397 383.253 59.6146C383.321 57.5563 383.354 55.9793 383.354 54.8838L386.475 56.2283C383.555 56.6267 380.687 57.0085 377.868 57.3737C375.05 57.7388 372.382 58.1372 369.866 58.5688C367.349 58.9672 365.084 59.4486 363.071 60.0129C361.595 60.4777 360.202 61.0753 358.894 61.8057C357.619 62.536 356.578 63.4822 355.773 64.6441C355.001 65.7729 354.615 67.1838 354.615 68.877C354.615 70.3377 354.985 71.732 355.723 73.06C356.495 74.3879 357.669 75.4669 359.246 76.2969C360.856 77.1268 362.954 77.5418 365.537 77.5418Z" fill="#9E9E9E"/>
<path d="M290.945 83.4677L274.336 29.6362L283.245 29.686L295.374 69.0264L307.605 29.686H315.506L327.686 69.0264L339.866 29.686H348.724L332.115 83.4677H324.667L311.53 42.5837L298.394 83.4677H290.945Z" fill="#9E9E9E"/>
<path d="M246.205 84.9617C242.145 84.9617 238.739 84.2313 235.988 82.7706C233.27 81.2766 231.206 79.3179 229.797 76.8944C228.421 74.4709 227.733 71.815 227.733 68.9268C227.733 66.1049 228.27 63.6648 229.344 61.6065C230.451 59.515 231.995 57.7886 233.974 56.4275C235.954 55.0332 238.32 53.9376 241.071 53.1408C243.655 52.4437 246.54 51.8461 249.728 51.3481C252.949 50.8169 256.204 50.3356 259.492 49.904C262.78 49.4724 265.85 49.0574 268.702 48.659L265.481 50.5016C265.582 45.721 264.609 42.1853 262.562 39.8946C260.549 37.6039 257.059 36.4586 252.093 36.4586C248.805 36.4586 245.919 37.2055 243.436 38.6995C240.987 40.1602 239.259 42.5505 238.252 45.8704L229.747 43.3307C231.055 38.6165 233.588 34.9148 237.346 32.2257C241.104 29.5367 246.054 28.1921 252.194 28.1921C257.126 28.1921 261.354 29.0719 264.877 30.8314C268.434 32.5577 270.984 35.1804 272.527 38.6995C273.299 40.3594 273.786 42.1687 273.987 44.1274C274.188 46.0529 274.289 48.0781 274.289 50.2028V83.4677H266.337V70.5701L268.199 71.7652C266.152 76.1143 263.283 79.4009 259.592 81.6252C255.935 83.8495 251.473 84.9617 246.205 84.9617ZM247.564 77.5418C250.785 77.5418 253.57 76.9774 255.918 75.8487C258.301 74.6867 260.213 73.1762 261.656 71.3171C263.099 69.4247 264.038 67.3664 264.475 65.1421C264.978 63.4822 265.246 61.6397 265.28 59.6146C265.347 57.5563 265.38 55.9793 265.38 54.8838L268.501 56.2283C265.582 56.6267 262.713 57.0085 259.894 57.3737C257.076 57.7388 254.408 58.1372 251.892 58.5688C249.375 58.9672 247.111 59.4486 245.097 60.0129C243.621 60.4777 242.229 61.0753 240.92 61.8057C239.645 62.536 238.605 63.4822 237.799 64.6441C237.028 65.7729 236.642 67.1838 236.642 68.877C236.642 70.3377 237.011 71.732 237.749 73.06C238.521 74.3879 239.695 75.4669 241.272 76.2969C242.883 77.1268 244.98 77.5418 247.564 77.5418Z" fill="#9E9E9E"/>
<path d="M212.732 83.4677V10.2649H221.691V83.4677H212.732Z" fill="#9E9E9E"/>
<path d="M181.848 84.9617C176.513 84.9617 171.849 83.7997 167.856 81.4758C163.897 79.1187 160.81 75.8487 158.595 71.6656C156.381 67.4494 155.273 62.536 155.273 56.9255C155.273 51.0493 156.364 45.97 158.545 41.6873C160.726 37.3715 163.762 34.0517 167.655 31.7278C171.58 29.3707 176.177 28.1921 181.445 28.1921C186.914 28.1921 191.562 29.4371 195.387 31.927C199.245 34.4168 202.131 37.9691 204.043 42.5837C205.99 47.1983 206.828 52.6927 206.56 59.0668H197.5V55.8797C197.4 49.2732 196.041 44.3432 193.424 41.0898C190.807 37.8031 186.914 36.1598 181.747 36.1598C176.211 36.1598 172 37.9193 169.114 41.4383C166.229 44.9574 164.786 50.0036 164.786 56.5769C164.786 62.9178 166.229 67.8312 169.114 71.3171C172 74.8029 176.11 76.5458 181.445 76.5458C185.035 76.5458 188.156 75.7325 190.807 74.1057C193.457 72.479 195.538 70.1385 197.048 67.0842L205.654 70.0223C203.54 74.7697 200.353 78.4548 196.091 81.0774C191.863 83.6669 187.116 84.9617 181.848 84.9617ZM161.766 59.0668V51.9457H201.93V59.0668H161.766Z" fill="#9E9E9E"/>
<path d="M125.217 84.9617C120.151 84.9617 115.806 83.7168 112.182 81.2269C108.558 78.7038 105.756 75.3009 103.777 71.0183C101.831 66.7357 100.857 61.9053 100.857 56.5271C100.857 51.1489 101.831 46.3185 103.777 42.0359C105.756 37.7533 108.558 34.3837 112.182 31.927C115.806 29.4371 120.134 28.1921 125.167 28.1921C130.301 28.1921 134.612 29.4205 138.102 31.8772C141.592 34.3339 144.225 37.7035 146.004 41.9861C147.816 46.2687 148.722 51.1157 148.722 56.5271C148.722 61.8721 147.816 66.7025 146.004 71.0183C144.225 75.3009 141.592 78.7038 138.102 81.2269C134.612 83.7168 130.318 84.9617 125.217 84.9617ZM126.325 76.8446C129.982 76.8446 132.985 75.9815 135.334 74.2552C137.683 72.4956 139.411 70.0887 140.518 67.0345C141.659 63.947 142.229 60.4445 142.229 56.5271C142.229 52.5433 141.659 49.0408 140.518 46.0198C139.411 42.9655 137.699 40.5918 135.384 38.8987C133.069 37.1723 130.133 36.3092 126.576 36.3092C122.885 36.3092 119.832 37.2055 117.416 38.9983C115.034 40.791 113.256 43.2145 112.081 46.2687C110.94 49.323 110.37 52.7425 110.37 56.5271C110.37 60.3449 110.957 63.7976 112.131 66.8851C113.306 69.9393 115.067 72.3628 117.416 74.1556C119.798 75.9483 122.768 76.8446 126.325 76.8446ZM142.229 83.4678V43.8785H141.222V11.7588H150.232V83.4678H142.229Z" fill="#9E9E9E"/>
<path d="M471.72 17.4194V17.1322L477.559 7.40329H472.232V5.2582H481.622V5.54534L475.817 15.2574H481.451V17.4194H471.72Z" fill="#9E9E9E"/>
<path d="M459.555 17.4194L463.311 5.2582H466.776L470.532 17.4194H468.142L464.796 6.69389H465.24L461.945 17.4194H459.555ZM461.809 14.8858V12.7407H468.296V14.8858H461.809Z" fill="#9E9E9E"/>
<path fill-rule="evenodd" clip-rule="evenodd" d="M45.4812 0H0V90H45.4812C70.5998 90 90.9625 69.8528 90.9625 45C90.9625 20.1472 70.5998 0 45.4812 0ZM49.7459 77.1774C48.7008 76.8729 47.6288 75.6418 47.401 74.4636C47.2536 73.6958 47.4278 73.1663 48.54 71.035C53.0422 62.4302 54.9985 54.5139 54.9985 44.9162C54.9985 35.6364 53.27 28.4084 48.9688 19.7507C48.0442 17.8973 47.2938 16.1632 47.2938 15.9116C47.2938 14.985 48.071 13.6479 48.9152 13.1316C50.0675 12.4168 52.0104 12.5492 52.9484 13.4096C53.3102 13.7406 54.2347 15.2497 55.0119 16.7589C58.0938 22.7292 60.1975 29.2821 61.2426 36.0997C61.8858 40.3226 62.0198 48.3184 61.4972 52.184C60.5459 59.306 58.6432 65.6735 55.5881 71.8954C53.739 75.655 52.5866 77.2039 51.6218 77.2039C51.4343 77.2039 51.1127 77.2569 50.9251 77.3098C50.7375 77.3628 50.2015 77.3098 49.7459 77.1774ZM37.2175 70.704C35.6095 70.2407 34.4438 68.2814 34.9128 66.8252C35.0199 66.4678 35.7837 64.8395 36.6011 63.198C40.0447 56.248 41.4785 48.8082 40.7817 41.5008C40.2055 35.4907 39.1202 31.7047 36.3733 26.1711C34.5376 22.4512 34.4438 21.882 35.5157 20.3729C36.5341 18.9432 39.08 18.7181 40.4065 19.9228C41.3311 20.7568 44.212 26.7007 45.3241 30.0631C48.9956 41.1831 48.4328 53.1371 43.7296 64.0585C41.3043 69.6582 39.6026 71.3924 37.2175 70.704ZM22.2101 61.6095C22.4513 62.6553 23.3088 63.7011 24.3004 64.1379C24.7426 64.3365 25.4929 64.4424 25.9619 64.4027C27.5029 64.2041 28.2666 63.3834 29.8076 60.2989C32.4874 54.911 33.4522 50.8999 33.4656 45.0619C33.479 39.3827 32.4473 34.948 29.9282 29.8381C28.2934 26.5153 27.3421 25.6019 25.5063 25.6019C24.421 25.6019 24.086 25.721 23.3088 26.4491C21.7411 27.9186 21.7813 28.6599 23.6438 32.3798C27.878 40.8654 27.8378 49.2186 23.4964 57.9028C22.3173 60.2592 22.0627 60.974 22.2101 61.6095ZM12.2409 58.0219C11.4503 57.7042 10.5526 56.6452 10.2846 55.7185C9.9898 54.6859 10.231 53.8652 11.4101 51.9457C12.9377 49.4701 13.2861 48.1463 13.2861 44.9162C13.2861 41.6862 12.9377 40.3491 11.4101 37.8868C10.8876 37.0528 10.3784 36.0467 10.2578 35.6496C9.76201 34.0213 11.1422 32.0224 12.9913 31.6782C14.559 31.3869 15.631 32.0753 17.0781 34.2993C21.2453 40.733 21.2453 49.3113 17.0781 55.692C15.6042 57.9293 13.9694 58.7236 12.2409 58.0219Z" fill="#9E9E9E"/>
</svg>
